<svg width="94" height="91" viewBox="0 0 94 91" fill="none" xmlns="http://www.w3.org/2000/svg">
<mask id="mask0_149_175" style="mask-type:luminance" maskUnits="userSpaceOnUse" x="8" y="0" width="86" height="83">
<path d="M8.55359 0.982849H94V82.8622H8.55359V0.982849Z" fill="white"/>
</mask>
<g mask="url(#mask0_149_175)">
<path d="M92.1585 1.03381C86.5638 1.03381 80.0575 2.19377 73.2525 4.37045C73.2469 4.37262 73.2435 4.37045 73.2389 4.37262C73.2344 4.37479 73.2332 4.37587 73.2298 4.37804C72.6781 4.55383 72.1263 4.72527 71.5723 4.91516C71.5178 4.93361 71.4622 4.95639 71.4077 4.98243C70.034 5.45553 68.6841 5.96878 67.3536 6.50481C67.3468 6.50589 67.3388 6.51132 67.332 6.5124C59.083 9.83276 51.757 14.2566 46.8173 18.9778L37.1957 28.175H29.167C25.3025 28.175 21.6695 29.6138 18.9346 32.2267L9.296 41.4391C8.77377 41.9382 8.62164 42.6913 8.91341 43.3412C9.19723 43.9771 9.85343 44.3873 10.5743 44.3873C10.588 44.3873 10.6027 44.3873 10.6175 44.3873L25.9734 44.0335C25.2377 47.8802 25.6816 51.8776 27.405 55.4768C22.177 60.6049 18.1581 67.3704 21.4334 70.4998C22.2531 71.2865 23.3146 71.6316 24.5293 71.6316C28.1577 71.6316 33.145 68.5239 37.1685 64.7738C39.7729 65.9088 42.5645 66.498 45.3812 66.498C46.6334 66.498 47.8856 66.3754 49.1254 66.1595L48.7553 80.8396C48.7371 81.546 49.1708 82.1894 49.8508 82.4683C50.0801 82.5616 50.322 82.6083 50.5626 82.6083C51.0327 82.6083 51.4959 82.4314 51.841 82.1015L61.4796 72.8892C64.2122 70.2752 65.7176 66.8029 65.7176 63.1104V55.4313L75.2677 46.2927C80.2425 41.553 84.8847 34.5065 88.3553 26.5669C88.3553 26.5658 88.3576 26.5658 88.3576 26.5637C88.9377 25.2366 89.4917 23.8933 90.0015 22.5228C90.1922 22.0139 90.3614 21.5094 90.5385 21.0026C90.5464 20.9896 90.5566 20.9766 90.5646 20.9636C90.5737 20.9429 90.568 20.9202 90.5771 20.8974C92.8499 14.3673 94.0454 8.12267 94.0159 2.75259C94.0068 1.79988 93.1519 1.03381 92.1585 1.03381ZM26.9815 40.5547L15.0451 40.8293L21.489 34.6693C23.5405 32.7096 26.2663 31.6299 29.1647 31.6299H33.5787L31.8905 33.2435C29.671 35.3691 28.0317 37.8789 26.9815 40.5547ZM33.8024 50.4355C32.6205 51.156 31.4183 52.0002 30.2273 52.9649C29.1102 50.0568 28.9479 46.8938 29.6858 43.8708C30.7518 46.3534 32.406 48.7016 33.8024 50.4355ZM34.9887 61.9884C29.2953 67.4323 24.5884 68.6291 23.9889 68.0573C23.3918 67.4855 24.6463 62.9834 30.3397 57.5439C32.8544 55.1415 35.5473 53.2329 37.9201 52.1695C39.3187 51.5445 40.2769 51.3752 40.8196 51.3752C41.1102 51.3752 41.2817 51.424 41.3373 51.4772C41.4974 51.6291 41.62 52.686 40.613 54.7444C39.4992 57.0133 37.5011 59.586 34.9887 61.9884ZM39.7797 62.0948C40.7901 60.9543 41.6779 59.802 42.4317 58.6691C44.2765 60.0212 46.7515 61.588 49.3695 62.595C46.1872 63.3176 42.8472 63.1668 39.7797 62.0948ZM62.1017 63.1082C62.1017 65.8795 60.9721 68.4837 58.9218 70.4445L52.479 76.6045L52.7674 65.1862C55.5715 64.1825 58.2009 62.621 60.4238 60.4964L62.1029 58.8894V63.1082H62.1017ZM72.711 43.8491L57.866 58.0517C57.212 58.6778 56.515 59.2421 55.7861 59.7531C55.7827 59.7553 55.777 59.7553 55.7736 59.7586C53.6154 60.9511 49.0368 59.2562 44.163 55.5647C45.7331 51.9536 44.9214 50.0156 43.8917 49.0325C42.8654 48.0483 40.8366 47.2692 37.0527 48.7775C33.4073 44.3959 31.5817 40.1847 32.44 37.9853C33.0326 37.1769 33.6979 36.4032 34.4483 35.686L39.22 31.1265C39.2211 31.1243 39.2211 31.1243 39.2234 31.1221L49.374 21.4215C53.5326 17.4457 59.5507 13.6805 66.4113 10.6726C67.1367 14.0602 69.4448 17.8266 72.9801 21.2012C76.5154 24.5758 80.4571 26.7731 83.9992 27.46C80.8544 34.0681 76.9002 39.8549 72.711 43.8491ZM85.458 24.2036C82.5176 23.8792 78.7712 21.8446 75.5356 18.7576C72.2989 15.6683 70.1623 12.0767 69.8183 9.27394C70.697 8.93431 71.5825 8.60445 72.4794 8.29411C72.4771 8.31798 72.4851 8.34077 72.4828 8.36356C72.3943 10.1062 73.9076 13.521 77.4531 16.9108C81.0191 20.319 84.61 21.7546 86.4412 21.6591C86.4526 21.6591 86.465 21.6613 86.4753 21.6613C86.1517 22.5185 85.8111 23.3648 85.458 24.2036ZM87.6321 18.2758C87.1701 18.2215 86.7035 18.1836 86.2334 18.2096C85.6374 18.2823 83.0274 17.3491 79.9996 14.4563C77.0047 11.5949 76.0908 9.10792 76.0942 8.55128C76.1226 8.08795 76.0874 7.62895 76.0272 7.17105C81.0974 5.67146 86.0416 4.73721 90.3614 4.53321C90.165 8.6587 89.1977 13.4059 87.6321 18.2758Z" fill="black" fill-opacity="0.3"/>
</g>
<path d="M59.2022 22.8701C55.9258 22.8701 52.8458 24.0897 50.5298 26.3033C48.2126 28.5157 46.9388 31.4596 46.9388 34.5911C46.9388 37.7227 48.2126 40.6665 50.5298 42.8801C52.8458 45.0947 55.9258 46.3122 59.2022 46.3122C62.4787 46.3122 65.5587 45.0926 67.8736 42.8801C70.1907 40.6654 71.4656 37.7227 71.4656 34.5911C71.4656 31.4596 70.1907 28.5157 67.8736 26.3033C65.5587 24.0897 62.4787 22.8701 59.2022 22.8701ZM65.318 40.4387C63.6866 42.0001 61.5137 42.8584 59.2022 42.8584C56.8908 42.8584 54.7201 41.999 53.0864 40.4387C51.4516 38.8772 50.5536 36.8025 50.5536 34.5933C50.5536 32.3852 51.4516 30.3083 53.0864 28.7469C54.7178 27.1854 56.8908 26.3271 59.2022 26.3271C61.5137 26.3271 63.6844 27.1876 65.318 28.7469C66.9517 30.3083 67.8509 32.3841 67.8509 34.5933C67.8509 36.8004 66.9517 38.8772 65.318 40.4387Z" fill="black" fill-opacity="0.3"/>
<path d="M3.086 56.2017L10.6414 48.9815C11.3475 48.3055 11.3475 47.2139 10.6414 46.5379C9.93407 45.863 8.79197 45.863 8.08582 46.5379L0.530464 53.7592C-0.176821 54.4352 -0.176821 55.5268 0.530464 56.2017C0.882404 56.5392 1.3456 56.7084 1.80766 56.7084C2.27086 56.7084 2.73406 56.5392 3.086 56.2017Z" fill="black" fill-opacity="0.3"/>
<path d="M19.9143 71.9029C19.2082 71.2279 18.0661 71.2279 17.3588 71.9029L5.66645 83.076C4.9603 83.752 4.9603 84.8436 5.66645 85.5185C6.01953 85.856 6.48159 86.0252 6.94479 86.0252C7.40799 86.0252 7.87005 85.856 8.22313 85.5185L19.9143 74.3454C20.6194 73.6715 20.6194 72.5789 19.9143 71.9029Z" fill="black" fill-opacity="0.3"/>
<path d="M14.6286 59.1108C13.9213 58.4359 12.7792 58.4359 12.073 59.1108L2.17671 68.5684C1.47056 69.2444 1.47056 70.336 2.17671 71.012C2.52978 71.3484 2.99185 71.5177 3.45504 71.5177C3.91711 71.5177 4.3803 71.3484 4.73224 71.012L14.6286 61.5533C15.3347 60.8795 15.3347 59.7868 14.6286 59.1108Z" fill="black" fill-opacity="0.3"/>
<mask id="mask1_149_175" style="mask-type:luminance" maskUnits="userSpaceOnUse" x="35" y="80" width="13" height="11">
<path d="M35.5825 80.0844H47.2079V90.9841H35.5825V80.0844Z" fill="white"/>
</mask>
<g mask="url(#mask1_149_175)">
<path d="M43.8975 80.7669L36.3421 87.987C35.636 88.663 35.636 89.7546 36.3421 90.4296C36.6952 90.767 37.1573 90.9363 37.6204 90.9363C38.0825 90.9363 38.5457 90.767 38.8976 90.4296L46.453 83.2094C47.1592 82.5334 47.1592 81.4418 46.453 80.7669C45.7457 80.0909 44.6036 80.0909 43.8975 80.7669Z" fill="black" fill-opacity="0.3"/>
</g>
<path d="M30.7428 76.9561L20.8476 86.4137C20.1403 87.0886 20.1403 88.1813 20.8476 88.8562C21.1995 89.1937 21.6627 89.363 22.1248 89.363C22.588 89.363 23.0501 89.1937 23.4031 88.8562L33.2983 79.3986C34.0056 78.7226 34.0056 77.631 33.2983 76.9561C32.5922 76.2801 31.4501 76.2801 30.7428 76.9561Z" fill="black" fill-opacity="0.3"/>
</svg>
