<svg width="135" height="116" viewBox="0 0 135 116" fill="none" xmlns="http://www.w3.org/2000/svg">
<mask id="mask0_149_154" style="mask-type:luminance" maskUnits="userSpaceOnUse" x="-16" y="0" width="151" height="116">
<path d="M-16 56.3226L108.01 3.83692e-05L134.998 59.4216L10.9879 115.744L-16 56.3226Z" fill="white"/>
</mask>
<g mask="url(#mask0_149_154)">
<path d="M109.258 54.9815C108.665 55.2166 108.017 55.271 107.415 55.1493C107.116 55.0867 106.827 54.9819 106.564 54.8434C106.299 54.7005 106.059 54.5226 105.855 54.3143C105.753 54.2091 105.657 54.0975 105.573 53.9789L105.508 53.8891L105.428 53.7722L105.269 53.5377L104.632 52.6063L103.358 50.7392L100.809 47.0079L98.2493 43.2827L98.2228 43.2443L98.16 43.1736C97.9159 42.9021 97.6216 42.6552 97.2821 42.4596C96.944 42.2632 96.5635 42.1204 96.1709 42.0462C95.3801 41.8932 94.5542 42.0086 93.8327 42.3381C93.1121 42.6654 92.4721 43.214 92.059 43.9246C91.8533 44.2777 91.7057 44.6676 91.6292 45.063C91.5512 45.4592 91.5437 45.8557 91.5885 46.2322L91.5906 46.2528L91.6053 46.3328C92.7282 52.1964 93.863 58.0582 95.0155 63.9156L95.4856 67.1107C95.544 67.5134 94.9988 67.7268 94.771 67.392L94.0454 66.3184L91.6502 62.5458C85.2642 52.4879 78.8392 42.4514 72.3772 32.4406L67.5244 24.9364L66.9164 23.9988L66.7649 23.7645L66.7274 23.7058L66.671 23.6214C66.6236 23.5528 66.5777 23.4835 66.5252 23.4153C66.3237 23.1425 66.086 22.8772 65.815 22.6341C65.274 22.1458 64.5786 21.7583 63.8375 21.552C63.4673 21.4478 63.0853 21.385 62.7062 21.3643C62.3277 21.345 61.9522 21.364 61.585 21.4172C60.8511 21.5287 60.154 21.7768 59.5221 22.1485C58.8895 22.5188 58.3161 23.0155 57.8581 23.6311C57.6313 23.9379 57.4336 24.273 57.2771 24.6272C57.1205 24.9814 57.0045 25.3534 56.9332 25.7284C56.8618 26.1035 56.836 26.4795 56.8475 26.8422C56.8533 27.0218 56.8686 27.2024 56.8923 27.3738C56.9037 27.4624 56.9189 27.5474 56.9356 27.6318L56.9603 27.7577L56.9861 27.874L59.1359 36.6023L61.2877 45.2792L63.4528 53.9537L65.6305 62.6243L67.8209 71.2909L67.9364 71.7398C68.0075 72.0195 67.6423 72.216 67.4453 72.0007L61.0687 65.037L60.9713 64.9297L60.8801 64.8521C60.5763 64.5843 60.2186 64.3446 59.8279 64.1595C59.4358 63.9751 59.0086 63.8445 58.5745 63.7783C57.6999 63.6435 56.8084 63.7653 56.0112 64.0949C55.2162 64.4253 54.4992 64.971 53.9759 65.6812C53.7165 66.0352 53.5056 66.4286 53.3588 66.8361C53.2114 67.2422 53.1274 67.6608 53.0998 68.0647L53.087 68.2707L53.1053 68.45L54.2305 79.6438L55.3538 90.6148C55.3398 90.6752 55.3152 90.7243 55.2854 90.7739C55.2323 90.8557 55.141 90.9404 55.0229 90.9941C54.9061 91.0507 54.7797 91.0703 54.675 91.0619C54.5908 91.0514 54.5145 91.0302 54.4268 90.9762L50.2897 86.1281L45.9811 81.0928L41.6626 76.0637L37.3359 71.0402L37.2457 70.9369L37.1852 70.8832C36.918 70.6403 36.6019 70.4249 36.2516 70.2612C35.9007 70.0959 35.5175 69.9868 35.1291 69.9378C34.3471 69.8402 33.556 69.9885 32.8768 70.3277C32.1948 70.6645 31.6038 71.198 31.2143 71.8691C31.0211 72.2021 30.8803 72.5672 30.8026 72.9362C30.7234 73.3058 30.7059 73.6763 30.7376 74.028L30.7465 74.1231L30.7551 74.1697L32.6031 83.5599L34.4727 92.906C34.5166 93.3839 34.4246 93.8405 34.1876 94.2439C33.9419 94.6639 33.539 95.0236 33.0554 95.2415C32.574 95.4601 32.0245 95.5329 31.5203 95.4355C31.011 95.3386 30.5557 95.0746 30.1825 94.658C29.6045 94.0007 28.8366 93.5054 27.9937 93.2498C27.1503 92.989 26.234 92.9651 25.3717 93.171C25.1559 93.2239 24.9441 93.2858 24.7383 93.3649C24.5356 93.4425 24.3193 93.5462 24.1665 93.6228L21.1684 95.0945L17.1742 97.0654L13.1813 99.043C10.5209 100.365 7.86409 101.691 5.21322 103.033C7.96866 101.921 10.7158 100.794 13.4618 99.6605L17.5783 97.955L21.6906 96.2442L24.7716 94.9549C24.9575 94.8759 25.0798 94.8275 25.2263 94.7808C25.3699 94.7355 25.5158 94.7034 25.6623 94.6766C26.2497 94.5721 26.856 94.6322 27.393 94.8338C27.933 95.034 28.4 95.3792 28.74 95.8181C29.006 96.1536 29.3422 96.477 29.7266 96.7317C30.1102 96.9885 30.5461 97.1819 31.0054 97.2997C31.9262 97.5362 32.9218 97.4609 33.8121 97.1179C34.703 96.7764 35.5107 96.1643 36.0549 95.3454C36.3281 94.9382 36.5325 94.4828 36.6543 94.0163C36.7769 93.5477 36.8161 93.0663 36.7922 92.6046L36.7909 92.5818L36.7791 92.5042L35.4128 83.0233L34.0335 73.6727C34.0391 73.5619 34.067 73.5042 34.1094 73.4506C34.1527 73.3949 34.2254 73.3366 34.3133 73.3039C34.4013 73.2712 34.4895 73.2708 34.5454 73.2869C34.5774 73.2976 34.6033 73.3111 34.6335 73.3298L38.6892 78.4277L42.8206 83.6049L46.9597 88.775L51.1085 93.9388L51.2019 94.0533L51.3449 94.1813C51.6792 94.4767 52.067 94.7389 52.4923 94.9407C52.9183 95.144 53.3796 95.2861 53.8538 95.3612C54.8034 95.5142 55.7839 95.3899 56.6652 95.0311C57.5479 94.6753 58.3439 94.0811 58.9307 93.3042C59.2221 92.9175 59.4586 92.4891 59.6282 92.0406C59.7963 91.5927 59.8974 91.1284 59.9371 90.6757L59.9513 90.5123L59.9347 90.3089L59.0286 79.0895L58.3682 71.0951C58.3275 70.6086 58.9534 70.3388 59.2787 70.7014L65.7501 77.9413L65.834 78.0348L65.9428 78.1315C66.233 78.3893 66.5689 78.6245 66.9476 78.815C67.3256 79.004 67.7428 79.1482 68.1741 79.2282C69.041 79.3936 69.9424 79.3016 70.7359 79.0116C71.5324 78.7202 72.2454 78.2412 72.8103 77.5987C73.3749 76.9635 73.7826 76.1417 73.9204 75.2856C73.9936 74.8592 73.9993 74.431 73.9512 74.0272C73.941 73.9254 73.9242 73.8248 73.9072 73.7279L73.8782 73.5806L73.8471 73.4486L73.7737 73.1519L73.5063 72.0668L72.973 69.8959L70.8227 61.2183L68.6591 52.5432L66.4829 43.872L64.294 35.2047L62.8925 29.2439C62.7632 28.6931 63.526 28.3593 63.8421 28.8289L68.1055 35.1743C74.7232 45.0872 81.3765 54.975 88.0688 64.8379L90.5785 68.5369L91.8366 70.3858L92.1508 70.8472L92.2743 71.0238C92.3247 71.0911 92.3751 71.1584 92.4306 71.2251C92.5396 71.3578 92.662 71.4844 92.7912 71.606C93.0548 71.8488 93.362 72.0646 93.6981 72.2329C94.0358 72.4006 94.4002 72.52 94.7696 72.5867C95.5121 72.7166 96.2596 72.635 96.9328 72.3978C97.6068 72.1584 98.2228 71.7596 98.7156 71.2166C98.9617 70.9443 99.1746 70.6348 99.3406 70.3015C99.506 69.9667 99.6223 69.6073 99.6842 69.2473C99.7455 68.8858 99.7522 68.5274 99.7163 68.1903C99.707 68.1061 99.6961 68.0227 99.6823 67.9406C99.675 67.9006 99.6678 67.857 99.6603 67.8207L99.6358 67.7111L99.5686 67.4241L98.542 63.075C97.1729 57.2889 95.7869 51.5052 94.3905 45.7225C94.3638 45.5128 94.3894 45.3388 94.4721 45.1714C94.5598 44.9873 94.7287 44.8114 94.9469 44.696C95.1629 44.5799 95.4101 44.5326 95.6296 44.5591C95.8432 44.5847 96.0427 44.6745 96.233 44.8514L98.9164 48.3452L101.679 51.9258L103.062 53.7162L103.753 54.6106L103.927 54.8346L104.013 54.9451L104.119 55.0792C104.267 55.2574 104.427 55.4243 104.599 55.5806C104.946 55.8905 105.337 56.1454 105.76 56.3412C106.183 56.5349 106.635 56.6634 107.099 56.727C107.561 56.7891 108.034 56.7855 108.497 56.7161C108.959 56.6429 109.413 56.5092 109.832 56.3096L129.22 46.7144L109.258 54.9815Z" fill="black" fill-opacity="0.3"/>
</g>
</svg>
