<svg width="48" height="48" viewBox="0 0 48 48" fill="none" xmlns="http://www.w3.org/2000/svg">
<mask id="mask0_150_616" style="mask-type:luminance" maskUnits="userSpaceOnUse" x="0" y="0" width="48" height="48">
<path d="M0 0H48V48H0V0Z" fill="white"/>
</mask>
<g mask="url(#mask0_150_616)">
<path d="M36.8763 37.9951H11.1248C8.76846 37.9951 6.85116 36.0778 6.85116 33.7215V16.5543C6.85116 14.199 8.76846 12.2829 11.1248 12.2829H17.7473L18.5675 11.0526C18.9786 10.4354 19.7838 10.0049 20.5256 10.0049H27.4744C28.2055 10.0049 29.0289 10.4461 29.4325 11.0537L30.2516 12.2829H36.8763C39.2315 12.2829 41.1488 14.199 41.1488 16.5543V33.7215C41.1488 36.0778 39.2315 37.9951 36.8763 37.9951ZM24.0005 0C10.7448 0 0 10.7456 0 24C0 37.2544 10.7448 48 24.0005 48C37.2552 48 48 37.2544 48 24C48 10.7456 37.2552 0 24.0005 0Z" fill="#FFF8F3"/>
</g>
<path d="M23.999 34.4534C18.8622 34.4534 14.6841 30.2754 14.6841 25.1398C14.6841 20.0031 18.8622 15.824 23.999 15.824C29.1368 15.824 33.316 20.0031 33.316 25.1398C33.316 30.2754 29.1368 34.4534 23.999 34.4534ZM12.8999 19.621C11.8984 19.621 11.0868 18.8094 11.0868 17.8078C11.0868 16.8074 11.8984 15.9947 12.8999 15.9947C13.9005 15.9947 14.7131 16.8074 14.7131 17.8078C14.7131 18.8094 13.9005 19.621 12.8999 19.621ZM36.8758 14.3899H29.124L27.6779 12.2203C27.6447 12.1838 27.5212 12.1184 27.4611 12.1108L20.5251 12.1119C20.4768 12.1184 20.3523 12.1849 20.3126 12.2311L18.8751 14.3899H11.1244C9.93061 14.3899 8.95801 15.3603 8.95801 16.554V33.7213C8.95801 34.916 9.93061 35.8876 11.1244 35.8876H36.8758C38.0695 35.8876 39.0411 34.916 39.0411 33.7213V16.554C39.0411 15.3603 38.0695 14.3899 36.8758 14.3899Z" fill="#FFF8F3"/>
<path d="M23.9993 29.9015C21.3735 29.9015 19.2372 27.7653 19.2372 25.1395C19.2372 22.5138 21.3735 20.3775 23.9993 20.3775C26.6262 20.3775 28.7625 22.5138 28.7625 25.1395C28.7625 27.7653 26.6262 29.9015 23.9993 29.9015ZM23.9993 17.9321C20.0252 17.9321 16.7917 21.1655 16.7917 25.1406C16.7917 29.1147 20.0252 32.3469 23.9993 32.3469C27.9745 32.3469 31.209 29.1147 31.209 25.1406C31.209 21.1655 27.9745 17.9321 23.9993 17.9321Z" fill="#FFF8F3"/>
</svg>
