<svg width="97" height="98" viewBox="0 0 97 98" fill="none" xmlns="http://www.w3.org/2000/svg">
<mask id="mask0_110_23" style="mask-type:luminance" maskUnits="userSpaceOnUse" x="0" y="0" width="97" height="98">
<path d="M0 0.5H97V97.5H0V0.5Z" fill="white"/>
</mask>
<g mask="url(#mask0_110_23)">
<path d="M74.5208 77.2817H22.4814C17.7196 77.2817 13.8451 73.4073 13.8451 68.6456V33.9534C13.8451 29.1939 17.7196 25.3216 22.4814 25.3216H35.8644L37.5218 22.8356C38.3527 21.5882 39.9797 20.7183 41.4788 20.7183H55.5212C56.9986 20.7183 58.6625 21.6099 59.4782 22.8377L61.1334 25.3216H74.5208C79.2804 25.3216 83.1549 29.1939 83.1549 33.9534V68.6456C83.1549 73.4073 79.2804 77.2817 74.5208 77.2817ZM48.5011 0.5C21.7134 0.5 0 22.2151 0 49C0 75.7849 21.7134 97.5 48.5011 97.5C75.2866 97.5 97 75.7849 97 49C97 22.2151 75.2866 0.5 48.5011 0.5Z" fill="#590100"/>
</g>
<path d="M48.4986 70.1251C38.1181 70.1251 29.6748 61.6821 29.6748 51.3039C29.6748 40.9236 38.1181 32.4784 48.4986 32.4784C58.8813 32.4784 67.3268 40.9236 67.3268 51.3039C67.3268 61.6821 58.8813 70.1251 48.4986 70.1251ZM26.0693 40.1513C24.0452 40.1513 22.4052 38.5113 22.4052 36.4873C22.4052 34.4655 24.0452 32.8233 26.0693 32.8233C28.0912 32.8233 29.7334 34.4655 29.7334 36.4873C29.7334 38.5113 28.0912 40.1513 26.0693 40.1513ZM74.5205 29.5801H58.8553L55.9331 25.1959C55.8659 25.1221 55.6164 24.9898 55.4949 24.9746L41.4785 24.9768C41.3808 24.9898 41.1292 25.1243 41.0489 25.2176L38.1441 29.5801H22.4811C20.0687 29.5801 18.1033 31.5412 18.1033 33.9535V68.6457C18.1033 71.0601 20.0687 73.0234 22.4811 73.0234H74.5205C76.9328 73.0234 78.8961 71.0601 78.8961 68.6457V33.9535C78.8961 31.5412 76.9328 29.5801 74.5205 29.5801Z" fill="#590100"/>
<path d="M48.4989 60.925C43.1926 60.925 38.8755 56.608 38.8755 51.3018C38.8755 45.9956 43.1926 41.6786 48.4989 41.6786C53.8074 41.6786 58.1245 45.9956 58.1245 51.3018C58.1245 56.608 53.8074 60.925 48.4989 60.925ZM48.4989 36.7368C40.4678 36.7368 33.9336 43.2709 33.9336 51.304C33.9336 59.3349 40.4678 65.8668 48.4989 65.8668C56.5321 65.8668 63.0685 59.3349 63.0685 51.304C63.0685 43.2709 56.5321 36.7368 48.4989 36.7368Z" fill="#590100"/>
</svg>
