<svg width="430" height="745" viewBox="0 0 430 745" fill="none" xmlns="http://www.w3.org/2000/svg">
<path d="M197 373C170.185 373.815 143.371 376.243 116.556 375.444C94.6616 374.792 41.8451 377.388 27.4444 346.667C22.5216 336.165 25.9273 323.186 28.5556 311.889C37.3875 273.928 53.9245 268.837 54.7778 229.222C55.6031 190.904 23.9783 165 -11 165" stroke="#FFF8F3" stroke-width="2" stroke-linecap="round"/>
<path d="M11.8731 747C-12.236 661.436 -22.0651 501.814 131.491 547.842C285.047 593.869 327.145 501.125 329 449" stroke="#FFF8F3" stroke-width="1.38542"/>
<path d="M331.132 568.406C221.005 453.175 326.198 303.349 408.642 298.635C626.577 286.172 644.881 104.986 656.294 45.3352" stroke="#FFF8F3" stroke-width="1.38542"/>
</svg>
