<svg width="48" height="48" viewBox="0 0 48 48" fill="none" xmlns="http://www.w3.org/2000/svg">
<mask id="mask0_150_611" style="mask-type:luminance" maskUnits="userSpaceOnUse" x="0" y="0" width="48" height="48">
<path d="M0 0H48V48H0V0Z" fill="white"/>
</mask>
<g mask="url(#mask0_150_611)">
<path d="M24.0005 0C10.7426 0 0 10.7424 0 24C0 37.2576 10.7426 48 24.0005 48C37.2574 48 48 37.2576 48 24C47.9796 10.7424 37.237 0 24.0005 0ZM36.9246 14.7326L32.2494 36.6543C32.0208 37.7557 30.7325 38.2334 29.8394 37.5689L18.7425 29.2987L31.0031 18.2236C31.0031 18.2236 31.834 17.5376 31.6053 17.3304C31.3563 17.0803 30.4416 17.6213 29.9843 17.9326C29.5066 18.2858 14.9605 27.4706 14.9605 27.4706L7.58437 25.1841C6.7524 24.935 6.7524 23.7917 7.95795 23.2936L35.0545 12.8625C36.2397 12.2807 37.1747 13.6108 36.9246 14.7326Z" fill="#FFF8F3"/>
</g>
</svg>
