<svg width="98" height="98" viewBox="0 0 98 98" fill="none" xmlns="http://www.w3.org/2000/svg">
<mask id="mask0_110_7" style="mask-type:luminance" maskUnits="userSpaceOnUse" x="0" y="0" width="98" height="98">
<path d="M0.137207 0.0996094H97.1372V97.0996H0.137207V0.0996094Z" fill="white"/>
</mask>
<g mask="url(#mask0_110_7)">
<path d="M48.6383 0.0996094C21.8463 0.0996094 0.137207 21.8082 0.137207 48.5996C0.137207 75.391 21.8463 97.0996 48.6383 97.0996C75.4281 97.0996 97.1372 75.391 97.1372 48.5996C97.096 21.8082 75.3869 0.0996094 48.6383 0.0996094ZM74.7556 29.8717L65.3079 74.1718C64.8458 76.3976 62.2425 77.3629 60.4376 76.0201L38.0126 59.3075L62.7892 36.9264C62.7892 36.9264 64.4683 35.5402 64.0063 35.1215C63.503 34.616 61.6546 35.7094 60.7305 36.3385C59.7651 37.0522 30.3698 55.6131 30.3698 55.6131L15.464 50.9924C13.7827 50.4891 13.7827 48.1788 16.2189 47.1722L70.9765 26.0927C73.3715 24.9169 75.2611 27.6047 74.7556 29.8717Z" fill="#590100"/>
</g>
</svg>
