<svg width="98" height="98" viewBox="0 0 98 98" fill="none" xmlns="http://www.w3.org/2000/svg">
<mask id="mask0_110_24" style="mask-type:luminance" maskUnits="userSpaceOnUse" x="0" y="0" width="98" height="98">
<path d="M0.276855 0.900635H97.2768V97.9006H0.276855V0.900635Z" fill="white"/>
</mask>
<g mask="url(#mask0_110_24)">
<path d="M48.6572 0.990032C21.6192 1.08128 0.00710598 23.0354 0.361724 50.0364C0.392182 52.7544 0.65325 55.4506 1.14275 58.1228C1.63008 60.7973 2.34149 63.411 3.27264 65.9659C4.20378 68.5187 5.34378 70.9759 6.69264 73.3376C8.04149 75.6992 9.57744 77.9304 11.3048 80.0313C11.5768 80.3637 11.7943 80.7309 11.9553 81.1285C12.1163 81.5261 12.2164 81.941 12.2556 82.369C12.2926 82.7971 12.2664 83.2207 12.1751 83.6422C12.0859 84.0615 11.9358 84.4591 11.7247 84.835L7.54981 92.3065C6.39241 94.377 8.27863 96.8277 10.5804 96.2411L24.7216 92.6454C25.2133 92.5216 25.7137 92.4847 26.2206 92.5368C26.7253 92.589 27.2083 92.7258 27.6651 92.9474C30.7914 94.4639 34.0461 95.6306 37.4248 96.4453C40.8034 97.26 44.2321 97.7033 47.7065 97.7793C74.8924 98.392 97.2051 76.7007 97.2899 49.5454C97.3748 22.6878 75.5516 0.898783 48.6572 0.990032ZM48.8247 91.8264C48.1286 91.8264 47.4324 91.8112 46.7384 91.7764C46.0444 91.7416 45.3504 91.6917 44.6585 91.6221C43.9667 91.5548 43.277 91.4701 42.5874 91.368C41.8999 91.2658 41.2146 91.1485 40.5336 91.0117C39.8505 90.8769 39.1739 90.7249 38.4973 90.5554C37.8229 90.3859 37.1528 90.2013 36.4871 89.9992C35.8235 89.7993 35.1622 89.5799 34.5073 89.3474C33.8525 89.1128 33.2041 88.8629 32.5624 88.5979C31.9184 88.3307 31.2831 88.0504 30.6544 87.7528C30.0256 87.4573 29.4056 87.1444 28.7921 86.8164C28.1786 86.4883 27.5738 86.1472 26.9777 85.7909C26.3816 85.4324 25.7941 85.0609 25.2154 84.6764C24.6367 84.2896 24.0689 83.8899 23.5098 83.4771C22.9507 83.0621 22.4024 82.6363 21.8651 82.1952C21.3277 81.7542 20.8012 81.3001 20.2856 80.8352C19.77 80.3681 19.2674 79.8901 18.7758 79.3991C18.2841 78.9081 17.8033 78.4041 17.3377 77.8892C16.87 77.3743 16.4153 76.8485 15.9758 76.3119C15.5342 75.7752 15.1056 75.2277 14.6922 74.6715C14.2767 74.1132 13.8764 73.544 13.4913 72.9682C13.104 72.3903 12.732 71.8037 12.3752 71.2084C12.0163 70.6131 11.6747 70.007 11.3462 69.3965C11.0198 68.7838 10.7066 68.1624 10.4085 67.5345C10.1105 66.9067 9.82981 66.2723 9.56439 65.6313C9.29679 64.9883 9.0466 64.3408 8.81382 63.6869C8.57886 63.0329 8.3613 62.3746 8.15897 61.7098C7.95664 61.045 7.77172 60.3758 7.60202 59.7023C7.4345 59.0288 7.28004 58.351 7.14515 57.6688C7.01027 56.9888 6.89061 56.3044 6.78836 55.6178C6.68611 54.9313 6.60126 54.2404 6.53382 53.5495C6.46638 52.8586 6.41416 52.1656 6.37935 51.4725C6.34672 50.7795 6.32932 50.0842 6.32932 49.3912C6.32932 25.9532 25.3547 6.95381 48.8247 6.95381C72.2013 6.95381 91.1701 25.8054 91.318 49.1174C91.4659 72.5076 72.2469 91.8264 48.8247 91.8264Z" fill="#590100"/>
</g>
<path d="M41.2272 28.7599L41.249 28.7968L43.7813 33.8177C43.9184 34.0871 44.0315 34.3674 44.1229 34.6542C44.2143 34.9431 44.2817 35.2364 44.3252 35.5362C44.3687 35.836 44.3883 36.1359 44.384 36.4379C44.3796 36.7398 44.3513 37.0418 44.2969 37.3395C44.2447 37.6371 44.1664 37.9283 44.0663 38.2129C43.9663 38.4975 43.8423 38.7734 43.6987 39.0385C43.5529 39.3035 43.3876 39.5555 43.2026 39.7945C43.0177 40.0335 42.8132 40.2573 42.5913 40.4615C42.3716 40.6679 42.1692 40.8873 41.9821 41.1242C41.7972 41.361 41.634 41.613 41.4883 41.8759C41.3425 42.1388 41.2207 42.4125 41.1206 42.6949C41.0184 42.9796 40.9422 43.2685 40.8878 43.564C40.8334 43.8595 40.803 44.1571 40.7965 44.4591C40.7899 44.7589 40.8073 45.0566 40.8508 45.3542C40.8922 45.654 40.9574 45.9451 41.0466 46.2319C41.1358 46.5187 41.2468 46.7968 41.3795 47.0662C42.9024 50.1187 45.537 54.3227 49.5597 57.3578C50.0122 57.6989 50.5017 57.9683 51.0347 58.1617C51.5655 58.3572 52.1138 58.468 52.6794 58.4984C53.2451 58.5267 53.802 58.4723 54.3503 58.3355C54.9007 58.1986 55.4163 57.9813 55.9014 57.6902L57.5331 56.6973C58.275 56.2476 59.0778 55.9804 59.9415 55.9022C60.8074 55.8218 61.6449 55.9369 62.4564 56.2433L68.944 58.707C69.2899 58.8395 69.6184 59.0025 69.9317 59.198C70.245 59.3935 70.5365 59.6195 70.8063 59.8715C71.0739 60.1257 71.3154 60.4016 71.5307 60.7036C71.7439 61.0034 71.9267 61.3228 72.079 61.6595C72.2313 61.9963 72.3466 62.3439 72.4293 62.7046C72.5119 63.063 72.5598 63.428 72.5707 63.7974C72.5815 64.1646 72.5554 64.5317 72.4945 64.8967C72.4336 65.2595 72.3379 65.6137 72.2052 65.9591C72.129 66.1568 72.0442 66.3502 71.9463 66.5392L70.1493 70.0175C70.0035 70.3 69.8338 70.5672 69.6445 70.8192C69.4531 71.0734 69.242 71.3081 69.0114 71.5253C68.7808 71.7426 68.535 71.9403 68.2696 72.1163C68.0063 72.2922 67.73 72.4443 67.4407 72.5725C67.1513 72.7029 66.8511 72.8072 66.5443 72.8854C66.2376 72.9636 65.9265 73.0157 65.6088 73.0418C65.2934 73.0679 64.9779 73.0679 64.6625 73.0418C64.3448 73.0135 64.0337 72.9614 63.727 72.881C53.5366 70.2478 29.2529 61.0968 27.297 33.4266C27.2579 32.877 27.2992 32.3338 27.4189 31.7972C27.5407 31.2584 27.7365 30.75 28.0063 30.2699C28.276 29.7919 28.6111 29.3595 29.007 28.9772C29.4052 28.597 29.849 28.2798 30.3385 28.0277L33.6475 26.3309C33.976 26.1615 34.3176 26.0268 34.6744 25.9247C35.029 25.8225 35.3902 25.7574 35.76 25.7269C36.1277 25.6965 36.4953 25.7031 36.863 25.7443C37.2307 25.7856 37.5897 25.8638 37.9421 25.9768C38.2945 26.0898 38.6318 26.2353 38.9537 26.4135C39.2779 26.5938 39.5803 26.8024 39.8631 27.0414C40.1438 27.2804 40.4005 27.5432 40.6289 27.8322C40.8595 28.1212 41.0597 28.4297 41.2272 28.7599Z" fill="#590100"/>
</svg>
